<?xml version="1.0" encoding="utf-8"?>
<!-- Generator: Adobe Illustrator 27.2.0, SVG Export Plug-In . SVG Version: 6.00 Build 0)  -->
<svg version="1.1" id="Layer_1" xmlns="http://www.w3.org/2000/svg" xmlns:xlink="http://www.w3.org/1999/xlink" x="0px" y="0px"
	 viewBox="0 0 100 100" style="enable-background:new 0 0 100 100;" xml:space="preserve">
<style type="text/css">
	.st0{fill:#2B354D;}
	.st1{fill:none;}
	.st2{fill:#213147;}
	.st3{fill:#12AAFF;}
	.st4{fill:#9DCCED;}
	.st5{fill:#FFFFFF;}
</style>
<g>
	<path class="st0" d="M98.4,90.6c0,3.8-3.2,7-7,7h-83c-3.8,0-7-3.2-7-7V8.5c0-3.8,3.2-7,7-7h83c3.8,0,7,3.2,7,7V90.6z"/>
</g>
<g>
	<path class="st1" d="M9.8,9.8h80.4v80.4H9.8V9.8z"/>
	<path class="st2" d="M17.1,34.2v31.5c0,2,1.1,3.9,2.8,4.9l27.3,15.8c1.7,1,3.9,1,5.6,0l27.3-15.8c1.7-1,2.8-2.9,2.8-4.9V34.2
		c0-2-1.1-3.9-2.8-4.9L52.8,13.6c-1.7-1-3.9-1-5.6,0L19.9,29.3C18.1,30.3,17.1,32.2,17.1,34.2L17.1,34.2L17.1,34.2z"/>
	<path class="st3" d="M56,56.1l-3.9,10.7c-0.1,0.3-0.1,0.6,0,0.9l6.7,18.4l7.7-4.5l-9.3-25.5C57,55.5,56.2,55.5,56,56.1L56,56.1z
		 M63.8,38.2c-0.2-0.6-1-0.6-1.3,0l-3.9,10.7c-0.1,0.3-0.1,0.6,0,0.9l11,30.1l7.7-4.5L63.8,38.2L63.8,38.2L63.8,38.2z"/>
	<path class="st4" d="M50,14.8c0.2,0,0.4,0.1,0.5,0.2l29.6,17c0.4,0.2,0.5,0.6,0.5,1v34.1c0,0.4-0.2,0.8-0.5,1l-29.6,17
		c-0.2,0.1-0.4,0.2-0.5,0.2s-0.4-0.1-0.5-0.2L19.9,68c-0.4-0.2-0.5-0.6-0.5-1V32.9c0-0.4,0.2-0.8,0.5-1l29.5-17.1
		C49.6,14.8,49.8,14.7,50,14.8L50,14.8L50,14.8z M50,9.8c-1.1,0-2.1,0.3-3.1,0.8l-29.5,17c-1.9,1.1-3.1,3.1-3.1,5.3V67
		c0,2.2,1.2,4.2,3.1,5.3l29.5,17.1c0.9,0.5,2,0.8,3.1,0.8s2.1-0.3,3.1-0.8l29.5-17.1c1.9-1.1,3.1-3.1,3.1-5.3V32.9
		c0-2.2-1.2-4.2-3.1-5.3L53,10.6C52.1,10,51,9.8,50,9.8L50,9.8L50,9.8z"/>
	<path class="st2" d="M30.4,79.9l2.7-7.5l5.5,4.5l-5.1,4.7L30.4,79.9z"/>
	<path class="st5" d="M47.5,30.5H40c-0.5,0-1.1,0.4-1.3,0.9l-16,44l7.7,4.5l17.7-48.5C48.3,30.9,48,30.5,47.5,30.5L47.5,30.5
		L47.5,30.5z M60.6,30.5h-7.5c-0.5,0-1.1,0.4-1.3,0.9L33.5,81.6l7.7,4.5l20-54.7C61.4,30.9,61.1,30.5,60.6,30.5L60.6,30.5L60.6,30.5
		z"/>
</g>
</svg>
