<?xml version="1.0" encoding="UTF-8"?>
<svg id="Layer_1" data-name="Layer 1" xmlns="http://www.w3.org/2000/svg" version="1.1" viewBox="0 0 100 100">
  <defs>
    <style>
      .cls-1 {
        fill: #9dcced;
      }

      .cls-1, .cls-2, .cls-3, .cls-4, .cls-5, .cls-6 {
        stroke-width: 0px;
      }

      .cls-2 {
        fill: #2b354d;
      }

      .cls-3 {
        fill: none;
      }

      .cls-4 {
        fill: #12aaff;
      }

      .cls-5 {
        fill: #213147;
      }

      .cls-6 {
        fill: #fff;
      }
    </style>
  </defs>
  <rect class="cls-2" x="1.5" y="2" width="97" height="96.1" rx="10.5" ry="10.5"/>
  <g>
    <path class="cls-3" d="M12.9,12.9h74.2v74.2H12.9V12.9Z"/>
    <path class="cls-5" d="M19.6,35.4v29.1c0,1.8,1,3.6,2.6,4.5l25.2,14.6c1.6.9,3.6.9,5.2,0l25.2-14.6c1.6-.9,2.6-2.7,2.6-4.5v-29.1c0-1.8-1-3.6-2.6-4.5l-25.2-14.5c-1.6-.9-3.6-.9-5.2,0l-25.2,14.5c-1.7.9-2.6,2.7-2.6,4.5h0Z"/>
    <path class="cls-4" d="M55.5,55.6l-3.6,9.9v.8l6.2,17,7.1-4.2-8.6-23.5c-.2-.6-.9-.6-1.1,0h0ZM62.7,39.1c-.2-.6-.9-.6-1.2,0l-3.6,9.9v.8l10.2,27.8,7.1-4.2-12.5-34.4h0Z"/>
    <path class="cls-1" d="M50,17.5c.2,0,.4,0,.5.2l27.3,15.7c.4.2.5.6.5.9v31.5c0,.4-.2.7-.5.9l-27.3,15.7c-.2,0-.4.2-.5.2s-.4,0-.5-.2l-27.3-15.8c-.4-.2-.5-.6-.5-.9v-31.5c0-.4.2-.7.5-.9l27.2-15.8h.6,0ZM50,12.9c-1,0-1.9.3-2.9.7l-27.2,15.7c-1.8,1-2.9,2.9-2.9,4.9v31.5c0,2,1.1,3.9,2.9,4.9l27.2,15.8c.8.5,1.8.7,2.9.7s1.9-.3,2.9-.7l27.2-15.8c1.8-1,2.9-2.9,2.9-4.9v-31.5c0-2-1.1-3.9-2.9-4.9l-27.3-15.7c-.8-.6-1.8-.7-2.8-.7h0Z"/>
    <path class="cls-5" d="M31.9,77.6l2.5-6.9,5.1,4.2-4.7,4.3-2.9-1.6Z"/>
    <path class="cls-6" d="M47.7,32h-6.9c-.5,0-1,.4-1.2.8l-14.8,40.6,7.1,4.2,16.3-44.8c.2-.5,0-.8-.6-.8h.1ZM59.8,32h-6.9c-.5,0-1,.4-1.2.8l-16.9,46.4,7.1,4.2,18.5-50.5c.2-.5,0-.8-.6-.8h0Z"/>
  </g>
</svg>