<?xml version="1.0" encoding="UTF-8"?>
<svg id="Layer_1" data-name="Layer 1" xmlns="http://www.w3.org/2000/svg" version="1.1" viewBox="0 0 100 100">
  <defs>
    <style>
      .cls-1 {
        fill: #e84142;
      }

      .cls-1, .cls-2 {
        stroke-width: 0px;
      }

      .cls-2 {
        fill: #fff;
        fill-rule: evenodd;
      }
    </style>
  </defs>
  <rect class="cls-1" x="1.5" y="2" width="97" height="96.1" rx="10.5" ry="10.5"/>
  <path class="cls-2" d="M32.5,79.3h-11.9c-2.5,0-3.8,0-4.5-.5-.9-.6-1.3-1.4-1.3-2.3s.6-1.9,1.8-4.1l29.2-51.6c1.3-2.2,1.9-3.3,2.7-3.7.9-.5,1.9-.5,2.7,0,.8.4,1.4,1.5,2.7,3.7l6.1,10.5h0c1.3,2.4,2,3.7,2.3,4.9.3,1.3.3,2.8,0,4.1s-1,2.5-2.3,4.8l-15.4,27.1h0c-1.3,2.5-2,3.7-3,4.6-1.1,1-2.3,1.7-3.7,2.1-1.3.3-2.6.3-5.4.3h0ZM62.4,79.3h17c2.5,0,3.8,0,4.5-.5.9-.6,1.3-1.4,1.3-2.4s-.6-1.9-1.7-3.9v-.2l-8.6-14.5v-.2c-1.3-2-1.9-3.1-2.7-3.5-.9-.5-1.8-.5-2.7,0-.8.4-1.4,1.4-2.7,3.7l-8.5,14.5h0c-1.3,2.1-1.8,3.2-1.8,4s.6,1.8,1.3,2.4,1.9.6,4.4.6h.2Z"/>
</svg>