<?xml version="1.0" encoding="utf-8"?>
<!-- Generator: Adobe Illustrator 27.2.0, SVG Export Plug-In . SVG Version: 6.00 Build 0)  -->
<svg version="1.1" id="Layer_1" xmlns="http://www.w3.org/2000/svg" xmlns:xlink="http://www.w3.org/1999/xlink" x="0px" y="0px"
	 viewBox="0 0 100 100" style="enable-background:new 0 0 100 100;" xml:space="preserve">
<style type="text/css">
	.st0{fill:#E84142;}
	.st1{fill-rule:evenodd;clip-rule:evenodd;fill:#FFFFFF;}
</style>
<g>
	<path class="st0" d="M98.4,94.6c0,1.7-1.3,3-3,3h-91c-1.6,0-3-1.3-3-3V4.5c0-1.7,1.3-3,3-3h91c1.7,0,3,1.3,3,3V94.6z"/>
</g>
<path class="st1" d="M31.8,80.5H19.4c-2.6,0-3.9,0-4.7-0.5c-0.9-0.6-1.3-1.5-1.4-2.4c0-0.9,0.6-2,1.9-4.3l30.4-53.6
	c1.3-2.3,2-3.4,2.8-3.8c0.9-0.5,2-0.5,2.8,0c0.8,0.4,1.5,1.6,2.8,3.8l6.3,10.9l0,0.1c1.4,2.4,2.1,3.7,2.4,5c0.3,1.4,0.3,2.9,0,4.3
	c-0.3,1.3-1,2.6-2.4,5l-16,28.2l0,0.1c-1.4,2.5-2.1,3.7-3.1,4.7c-1.1,1-2.4,1.8-3.8,2.2C36.1,80.5,34.7,80.5,31.8,80.5L31.8,80.5z
	 M62.9,80.5h17.7c2.6,0,3.9,0,4.7-0.5c0.9-0.6,1.4-1.5,1.4-2.5c0-0.9-0.6-2-1.8-4.1l-0.1-0.2l-8.8-15.1l-0.1-0.2
	c-1.2-2.1-1.9-3.2-2.7-3.6c-0.9-0.5-1.9-0.5-2.8,0c-0.8,0.4-1.5,1.5-2.8,3.8l-8.8,15.1l0,0c-1.3,2.2-1.9,3.3-1.9,4.2
	c0.1,1,0.6,1.9,1.4,2.5C59,80.5,60.3,80.5,62.9,80.5L62.9,80.5z"/>
</svg>
