<svg xmlns="http://www.w3.org/2000/svg" viewBox="0 0 192 192" style="enable-background:new 0 0 192 192" xml:space="preserve"><path d="M62.8 52.6 96 33.5l33.2 19.1-12.2 7-21-11.9-21 12-12.2-7.1zm66.4 24.2-12.2-7-21 12-21-12.1-12.2 7.1V91l21 12.1v24.1l12.2 7.1 12.2-7.1v-24.1l21-12.1V76.8zm0 38.4V101l-12.2 7v14.2l12.2-7zm8.6 4.8-21 12.1v14.2l33.2-19.1V88.9L137.8 96v24zm-12.2-55.3 12.2 7.1V86l12.2-7.1V64.7l-12.2-7.1-12.2 7.1zm-41.8 72.6v14.2l12.2 7.1 12.2-7.1v-14.2l-12.2 7-12.2-7zm-21-22.1 12.2 7.1V108l-12.2-7v14.2zm21-50.5L96 71.8l12.2-7.1-12.2-7c0-.1-12.2 7-12.2 7zm-29.6 7.1 12.2-7.1-12.2-7.1L42 64.7v14.2L54.2 86V71.8zm0 24.1-12.2-7v38.3l33.2 19.1v-14.2l-21-12.1V95.9z" style="fill:#f0b90b"/></svg>