<?xml version="1.0" encoding="UTF-8"?>
<svg id="Layer_1" data-name="Layer 1" xmlns="http://www.w3.org/2000/svg" version="1.1" viewBox="0 0 100 100">
  <defs>
    <style>
      .cls-1 {
        fill: #f0b90b;
      }

      .cls-1, .cls-2 {
        stroke-width: 0px;
      }

      .cls-2 {
        fill: #000;
      }
    </style>
  </defs>
  <rect class="cls-2" x="1.5" y="2" width="97" height="96.1" rx="10.5" ry="10.5"/>
  <path class="cls-1" d="M31.1,25.2l18.9-10.9,18.9,10.9-6.9,4-12-6.8-12,6.8-6.9-4ZM68.9,39l-6.9-4-12,6.9-12-6.9-6.9,4v8.1l12,6.9v13.7l6.9,4.1,6.9-4.1v-13.7l12-6.9v-8.1h0ZM68.9,60.9v-8.1l-6.9,4v8.1l6.9-4ZM73.8,63.7l-12,6.9v8.1l18.9-10.9v-21.9l-6.9,4.1v13.7h0ZM66.9,32.1l6.9,4.1v8.1l6.9-4.1v-8.1l-6.9-4.1-6.9,4.1h0ZM43.1,73.5v8.1l6.9,4.1,6.9-4.1v-8.1l-6.9,4-6.9-4ZM31.1,60.9l6.9,4.1v-8.1l-6.9-4v8ZM43.1,32.1l6.9,4.1,6.9-4.1-6.9-4s-6.9,4-6.9,4ZM26.2,36.2l6.9-4.1-6.9-4.1-6.9,4.1v8.1l6.9,4.1s0-8.1,0-8.1ZM26.2,49.9l-6.9-4v21.8l18.9,10.9v-8.1l-12-6.9c0,.1,0-13.7,0-13.7h0Z"/>
</svg>