<?xml version="1.0" encoding="utf-8"?>
<!-- Generator: Adobe Illustrator 27.2.0, SVG Export Plug-In . SVG Version: 6.00 Build 0)  -->
<svg version="1.1" id="Layer_1" xmlns="http://www.w3.org/2000/svg" xmlns:xlink="http://www.w3.org/1999/xlink" x="0px" y="0px"
	 viewBox="0 0 100 100" style="enable-background:new 0 0 100 100;" xml:space="preserve">
<style type="text/css">
	.st0{fill:#F0B90B;}
</style>
<g>
	<path d="M98.4,94.6c0,1.7-1.3,3-3,3h-91c-1.6,0-3-1.3-3-3V4.5c0-1.7,1.3-3,3-3h91c1.7,0,3,1.3,3,3V94.6z"/>
</g>
<path class="st0" d="M31.1,25.2L50,14.3l18.9,10.9l-6.9,4l-12-6.8l-12,6.8L31.1,25.2z M68.9,39L62,35l-12,6.9l-12-6.9L31.1,39v8.1
	l12,6.9v13.7l6.9,4.1l6.9-4.1V54l12-6.9V39L68.9,39z M68.9,60.9v-8.1l-6.9,4v8.1C62,64.9,68.9,60.9,68.9,60.9z M73.8,63.7l-12,6.9
	v8.1l18.9-10.9V45.9l-6.9,4.1V63.7L73.8,63.7z M66.9,32.1l6.9,4.1v8.1l6.9-4.1v-8.1l-6.9-4.1L66.9,32.1L66.9,32.1z M43.1,73.5v8.1
	l6.9,4.1l6.9-4.1v-8.1l-6.9,4L43.1,73.5z M31.1,60.9L38,65v-8.1l-6.9-4V60.9z M43.1,32.1l6.9,4.1l6.9-4.1l-6.9-4
	C50,28.1,43.1,32.1,43.1,32.1z M26.2,36.2l6.9-4.1l-6.9-4.1l-6.9,4.1v8.1l6.9,4.1V36.2z M26.2,49.9l-6.9-4v21.8l18.9,10.9v-8.1
	l-12-6.9C26.2,63.7,26.2,49.9,26.2,49.9L26.2,49.9z"/>
</svg>
