<?xml version="1.0" encoding="UTF-8"?>
<svg id="Layer_1" data-name="Layer 1" xmlns="http://www.w3.org/2000/svg" version="1.1" viewBox="0 0 100 100">
  <defs>
    <style>
      .cls-1 {
        fill: #226efb;
      }

      .cls-1, .cls-2 {
        stroke-width: 0px;
      }

      .cls-2 {
        fill: #fff;
      }
    </style>
  </defs>
  <rect class="cls-1" x="1.5" y="2" width="97" height="96.1" rx="10.5" ry="10.5"/>
  <path class="cls-2" d="M46.6,12.1c1.9-.9,4.7-.9,6.6,0l19,10.1c1.1.7,1.7,1.4,1.9,2.5v50.6c0,.9-.7,2-1.9,2.6l-19.1,10c-1.9.9-4.7.9-6.6,0l-18.9-10.1c-1.2-.7-1.8-1.7-1.9-2.6V24.6c0-.9.7-1.8,1.8-2.5l19.1-10.1h0ZM71.1,52.6l-17.9,9.4c-1.9.9-4.7.9-6.6,0l-17.9-9.4v22.2l17.9,9.4c1,.6,2.2,1.1,3.2,1.1h0c1,0,2.1-.6,3.2-1l18.1-9.6v-22.1h0ZM22.8,74c0,1.9.2,3.2.7,4.1.4.8.9,1.3,1.9,2h0c.2.3.5.4.8.6l.4.2,1.1.7-1.5,2.5-1.1-.8-.2-.2c-.4-.2-.7-.4-.9-.6-2.9-1.9-4-4.1-4-8.5v-.2h2.8v.2ZM48.5,39.3c-.2,0-.3,0-.4.2l-19.1,10h0l19,10.1c.2,0,.3.2.4.2v-20.5h0ZM51.5,39.3v20.5c.2,0,.3,0,.4-.2l19-10.1h0l-19-10.2h-.4ZM71.1,28.1l-17.2,9,17.2,9v-17.9h0ZM28.7,28.1v18l17.2-9s-17.2-9-17.2-9ZM51.8,14.8c-.9-.6-2.7-.6-3.8,0l-19,10.1h0l19,10c.9.6,2.7.6,3.8,0l19-10.1h0l-19-10h0ZM73.9,15.8l1.1.8.2.2c.4.2.7.4.9.6,2.9,1.9,4,4.1,4,8.5v.2h-2.9c0-1.9-.2-3.2-.7-4.1-.4-.8-.9-1.3-1.9-2l-.2-.2c-.2-.2-.5-.3-.8-.5l-.4-.2-1.1-.7,1.7-2.5h.1Z"/>
</svg>