<?xml version="1.0" encoding="utf-8"?>
<!-- Generator: Adobe Illustrator 27.2.0, SVG Export Plug-In . SVG Version: 6.00 Build 0)  -->
<svg version="1.1" id="Layer_1" xmlns="http://www.w3.org/2000/svg" xmlns:xlink="http://www.w3.org/1999/xlink" x="0px" y="0px"
	 viewBox="0 0 100 100" style="enable-background:new 0 0 100 100;" xml:space="preserve">
<style type="text/css">
	.st0{fill:#226EFB;}
	.st1{fill:#FFFFFF;}
</style>
<g>
	<path class="st0" d="M98.4,94.6c0,1.7-1.3,3-3,3h-91c-1.6,0-3-1.3-3-3V4.5c0-1.7,1.3-3,3-3h91c1.7,0,3,1.3,3,3V94.6z"/>
</g>
<path class="st1" d="M46.4,9.8c2-1,5-1,7,0l20.2,10.7c1.2,0.7,1.8,1.5,2,2.6v53.7c0,1-0.7,2.1-2,2.8L53.3,90.2c-2,1-5,1-7,0
	L26.2,79.5c-1.3-0.7-1.9-1.8-2-2.8V23.1c0.1-1,0.7-1.9,1.9-2.6C26.1,20.5,46.4,9.8,46.4,9.8L46.4,9.8z M72.4,52.8l-19,10
	c-2,1-5,1-7,0l-19-10v23.6l19,10c1.1,0.6,2.3,1.2,3.4,1.2h0.1c1.1,0,2.2-0.6,3.4-1.1l19.2-10.2L72.4,52.8L72.4,52.8L72.4,52.8z
	 M21.1,75.5c0,2,0.2,3.4,0.7,4.4c0.4,0.8,1,1.4,2,2.1l0.1,0.1c0.2,0.2,0.5,0.3,0.8,0.5l0.4,0.2l1.2,0.7l-1.6,2.7l-1.2-0.8l-0.2-0.2
	c-0.4-0.2-0.7-0.4-1-0.6c-3.1-2-4.2-4.3-4.2-9v-0.2H21.1L21.1,75.5z M48.4,38.6c-0.2,0.1-0.3,0.1-0.4,0.2L27.7,49.4h-0.1h0.1
	l20.2,10.7c0.2,0.1,0.3,0.2,0.4,0.2V38.6z M51.6,38.6v21.8c0.2-0.1,0.3-0.1,0.4-0.2l20.2-10.7h0.1h-0.1L52,38.7
	C51.9,38.7,51.7,38.6,51.6,38.6L51.6,38.6z M72.4,26.8l-18.2,9.5l18.2,9.5L72.4,26.8L72.4,26.8z M27.4,26.8v19.1l18.2-9.5
	C45.6,36.4,27.4,26.8,27.4,26.8z M51.9,12.7c-1-0.6-2.9-0.6-4,0L27.7,23.4h-0.1h0.1L47.9,34c1,0.6,2.9,0.6,4,0l20.2-10.7h0.1h-0.1
	L51.9,12.7L51.9,12.7z M75.4,13.7l1.2,0.8l0.2,0.2c0.4,0.2,0.7,0.4,1,0.6c3.1,2,4.2,4.3,4.2,9v0.2h-3.1c0-2-0.2-3.4-0.7-4.4
	c-0.4-0.8-1-1.4-2-2.1L76,17.8c-0.2-0.2-0.5-0.3-0.8-0.5l-0.4-0.2l-1.2-0.7L75.4,13.7z"/>
</svg>
