<?xml version="1.0" encoding="utf-8"?>
<!-- Generator: Adobe Illustrator 27.2.0, SVG Export Plug-In . SVG Version: 6.00 Build 0)  -->
<svg version="1.1" id="Layer_1" xmlns="http://www.w3.org/2000/svg" xmlns:xlink="http://www.w3.org/1999/xlink" x="0px" y="0px"
	 viewBox="0 0 100 100" style="enable-background:new 0 0 100 100;" xml:space="preserve">
<style type="text/css">
	.st0{fill:#406958;}
	.st1{fill:#FFFFFF;}
</style>
<g>
	<path class="st0" d="M98.4,90.6c0,3.8-3.2,7-7,7h-83c-3.8,0-7-3.2-7-7V8.5c0-3.8,3.2-7,7-7h83c3.8,0,7,3.2,7,7V90.6z"/>
</g>
<g>
	<path class="st1" d="M33.7,55.5c2.3,0,4.5-0.8,6.3-2.2L25.5,38.9c-3.5,4.5-2.7,11,1.8,14.5C29.2,54.7,31.4,55.5,33.7,55.5
		L33.7,55.5L33.7,55.5z M76.6,45.2c0-2.3-0.8-4.5-2.2-6.3L60,53.3c4.5,3.5,11,2.7,14.5-1.8C75.9,49.7,76.6,47.5,76.6,45.2z"/>
	<path class="st1" d="M83.9,29.4l-6.4,6.4c5.1,6.2,4.3,15.4-1.8,20.5c-5.4,4.5-13.3,4.5-18.7,0l-7,7l-7-7
		c-6.2,5.1-15.4,4.3-20.5-1.8c-4.5-5.4-4.5-13.3,0-18.7l-3.3-3.3l-3.1-3.1c-3.8,6.2-5.7,13.3-5.7,20.6c0,21.9,17.8,39.6,39.6,39.6
		S89.6,71.9,89.6,50C89.7,42.8,87.7,35.6,83.9,29.4L83.9,29.4z"/>
	<path class="st1" d="M78.7,22.6c-15.1-15.8-40.2-16.4-56-1.3c-0.5,0.4-0.9,0.9-1.3,1.3c-1,1.1-1.9,2.1-2.8,3.2L50,57.3l31.5-31.5
		C80.6,24.7,79.7,23.6,78.7,22.6L78.7,22.6z M50,15.5c9.3,0,17.9,3.6,24.4,10.1L50,50L25.6,25.6C32.1,19.1,40.7,15.5,50,15.5z"/>
</g>
</svg>
