<?xml version="1.0" encoding="UTF-8"?>
<svg id="Layer_1" data-name="Layer 1" xmlns="http://www.w3.org/2000/svg" version="1.1" viewBox="0 0 100 100">
  <defs>
    <style>
      .cls-1 {
        fill: #406958;
      }

      .cls-1, .cls-2 {
        stroke-width: 0px;
      }

      .cls-2 {
        fill: #fff;
      }
    </style>
  </defs>
  <rect class="cls-1" x="1.5" y="2" width="97" height="96.1" rx="10.5" ry="10.5"/>
  <g>
    <path class="cls-2" d="M34.4,55.3c2.2,0,4.3-.8,6-2.1l-13.9-13.8c-3.4,4.3-2.6,10.6,1.7,13.9,1.8,1.2,3.9,2,6.1,2h0ZM75.5,45.4c0-2.2-.8-4.3-2.1-6l-13.8,13.8c4.3,3.4,10.6,2.6,13.9-1.7,1.3-1.7,2-3.8,2-6h0Z"/>
    <path class="cls-2" d="M82.5,30.2l-6.1,6.1c4.9,5.9,4.1,14.8-1.7,19.7-5.2,4.3-12.8,4.3-17.9,0l-6.7,6.7-6.7-6.7c-5.9,4.9-14.8,4.1-19.7-1.7-4.3-5.2-4.3-12.8,0-17.9l-3.2-3.2-3-3c-3.6,5.9-5.5,12.8-5.5,19.8,0,21,17.1,38,38,38s38-17,38-38-1.8-13.8-5.5-19.8h0Z"/>
    <path class="cls-2" d="M77.5,23.7c-14.5-15.2-38.6-15.7-53.7-1.2-.5.4-.9.9-1.2,1.2-1,1.1-1.8,2-2.7,3.1l30.1,30.2,30.2-30.2c-.9-1.1-1.7-2.1-2.7-3.1h0ZM50,16.9c8.9,0,17.2,3.5,23.4,9.7l-23.4,23.4-23.4-23.4c6.2-6.2,14.5-9.7,23.4-9.7Z"/>
  </g>
</svg>