<?xml version="1.0" encoding="utf-8"?>
<!-- Generator: Adobe Illustrator 27.2.0, SVG Export Plug-In . SVG Version: 6.00 Build 0)  -->
<svg version="1.1" id="Layer_1" xmlns="http://www.w3.org/2000/svg" xmlns:xlink="http://www.w3.org/1999/xlink" x="0px" y="0px"
	 viewBox="0 0 100 100" style="enable-background:new 0 0 100 100;" xml:space="preserve">
<style type="text/css">
	.st0{fill:#FF0420;}
	.st1{fill-rule:evenodd;clip-rule:evenodd;fill:#FFFFFF;}
</style>
<g>
	<path class="st0" d="M98.4,90.6c0,3.8-3.2,7-7,7h-83c-3.8,0-7-3.2-7-7V8.5c0-3.8,3.2-7,7-7h83c3.8,0,7,3.2,7,7V90.6z"/>
</g>
<path class="st1" d="M48.6,39c-0.5-1.7-1.4-3.3-2.8-4.4c-1.4-1.1-2.8-2.2-4.7-2.8C39.2,31.3,37.3,31,35,31c-5,0-9.2,1.1-12.2,3.6
	s-5,6.1-6.4,10.8c-0.3,1.7-0.8,3-1.1,4.7c-0.3,1.4-0.5,3-0.8,4.4c-0.3,2.5-0.3,4.4,0.3,6.4c0.5,1.7,1.4,3.3,2.8,4.4s2.8,2.2,4.7,2.8
	c1.9,0.5,3.9,0.8,6.1,0.8c5,0,9.2-1.1,12.2-3.6s5-6.1,6.4-10.8c0.3-1.4,0.5-3,1.1-4.4c0.3-1.4,0.5-3,0.8-4.7
	C49.2,42.9,49.2,40.7,48.6,39L48.6,39z M38.9,45.4c-0.3,1.4-0.5,2.8-0.8,4.1C37.8,51,37.5,52.4,37,54c-0.5,2.5-1.7,4.1-3,5.3
	c-1.4,1.1-3,1.7-5,1.7c-1.9,0-3.3-0.5-4.1-1.7c-0.8-1.1-1.1-3-0.5-5.3c0.3-1.7,0.5-3,0.8-4.4s0.5-2.8,1.1-4.1c0.5-2.5,1.7-4.1,3-5.3
	c1.4-1.1,3-1.7,5-1.7c1.9,0,3.3,0.5,4.1,1.7C39.2,41.3,39.5,42.9,38.9,45.4z M85.2,38.2c-0.5-1.7-1.4-2.8-2.5-3.9s-2.5-1.7-4.4-2.2
	c-1.7-0.5-3.6-0.8-5.8-0.8H58.4c-0.3,0-0.5,0-1.1,0.3c-0.3,0.3-0.5,0.5-0.5,0.8l-7.2,34.4c0,0.3,0,0.8,0.3,0.8
	c0.3,0.3,0.5,0.3,0.8,0.3h7.2c0.3,0,0.8,0,1.1-0.3s0.5-0.5,0.5-0.8L62,55.1h7.2c4.4,0,8-0.8,10.8-2.8c2.8-1.9,4.4-5,5.3-8.9
	C85.8,41.5,85.8,39.6,85.2,38.2L85.2,38.2z M75.5,43.5c-0.3,1.7-1.1,2.8-2.2,3.6s-2.5,1.1-3.9,1.1h-6.1l1.9-9.4h6.4
	c1.4,0,2.2,0.3,2.8,0.5c0.5,0.5,1.1,1.1,1.1,1.7C75.8,41.5,75.8,42.4,75.5,43.5L75.5,43.5z"/>
</svg>
