<?xml version="1.0" encoding="UTF-8"?>
<svg id="Layer_1" data-name="Layer 1" xmlns="http://www.w3.org/2000/svg" version="1.1" viewBox="0 0 100 100">
  <defs>
    <style>
      .cls-1 {
        fill: #ff0420;
      }

      .cls-1, .cls-2 {
        stroke-width: 0px;
      }

      .cls-2 {
        fill: #fff;
        fill-rule: evenodd;
      }
    </style>
  </defs>
  <rect class="cls-1" x="1.5" y="2" width="97" height="96.1" rx="10.5" ry="10.5"/>
  <path class="cls-2" d="M48.6,39c-.5-1.7-1.4-3.3-2.8-4.4-1.4-1.1-2.8-2.2-4.7-2.8-1.9-.5-3.8-.8-6.1-.8-5,0-9.2,1.1-12.2,3.6s-5,6.1-6.4,10.8c-.3,1.7-.8,3-1.1,4.7-.3,1.4-.5,3-.8,4.4-.3,2.5-.3,4.4.3,6.4.5,1.7,1.4,3.3,2.8,4.4s2.8,2.2,4.7,2.8c1.9.5,3.9.8,6.1.8,5,0,9.2-1.1,12.2-3.6s5-6.1,6.4-10.8c.3-1.4.5-3,1.1-4.4.3-1.4.5-3,.8-4.7.3-2.5.3-4.7-.3-6.4h0ZM38.9,45.4c-.3,1.4-.5,2.8-.8,4.1-.3,1.5-.6,2.9-1.1,4.5-.5,2.5-1.7,4.1-3,5.3-1.4,1.1-3,1.7-5,1.7s-3.3-.5-4.1-1.7c-.8-1.1-1.1-3-.5-5.3.3-1.7.5-3,.8-4.4s.5-2.8,1.1-4.1c.5-2.5,1.7-4.1,3-5.3,1.4-1.1,3-1.7,5-1.7s3.3.5,4.1,1.7c.8,1.1,1.1,2.7.5,5.2ZM85.2,38.2c-.5-1.7-1.4-2.8-2.5-3.9s-2.5-1.7-4.4-2.2c-1.7-.5-3.6-.8-5.8-.8h-14.1c-.3,0-.5,0-1.1.3-.3.3-.5.5-.5.8l-7.2,34.4c0,.3,0,.8.3.8.3.3.5.3.8.3h7.2c.3,0,.8,0,1.1-.3s.5-.5.5-.8l2.5-11.7h7.2c4.4,0,8-.8,10.8-2.8,2.8-1.9,4.4-5,5.3-8.9.5-1.9.5-3.8-.1-5.2h0ZM75.5,43.5c-.3,1.7-1.1,2.8-2.2,3.6s-2.5,1.1-3.9,1.1h-6.1l1.9-9.4h6.4c1.4,0,2.2.3,2.8.5.5.5,1.1,1.1,1.1,1.7.3.5.3,1.4,0,2.5h0Z"/>
</svg>