<?xml version="1.0" encoding="utf-8"?>
<!-- Generator: Adobe Illustrator 27.2.0, SVG Export Plug-In . SVG Version: 6.00 Build 0)  -->
<svg version="1.1" id="Layer_1" xmlns="http://www.w3.org/2000/svg" xmlns:xlink="http://www.w3.org/1999/xlink" x="0px" y="0px"
	 viewBox="0 0 45.4 45.4" style="enable-background:new 0 0 45.4 45.4;" xml:space="preserve">
<style type="text/css">
	.st0{fill:#8247E5;}
</style>
<path class="st0" d="M6,21c-0.7,0.4-1.1,1.1-1.1,2v8.8c0,0.9,0.4,1.6,1.1,2l7.5,4.4c0.7,0.4,1.5,0.4,2.2,0l7.5-4.4
	c0.7-0.4,1.1-1.1,1.1-2v-3.1l-3.5-2v2.9c0,0.9-0.4,1.6-1.1,2l-4,2.3c-0.7,0.4-1.5,0.4-2.2,0l-3.9-2.3c-0.7-0.4-1.1-1.1-1.1-2V25
	c0-0.9,0.4-1.6,1.1-2l4-2.3c0.6-0.4,1.5-0.4,2.2,0l5.1,2.9l3.5,2.1l5.1,2.9c0.7,0.4,1.5,0.4,2.2,0l7.6-4.4c0.7-0.4,1.1-1.1,1.1-2
	v-8.7c0-0.7-0.4-1.4-1.1-1.8l-7.6-4.4c-0.7-0.4-1.5-0.4-2.2,0L22,11.7c-0.7,0.4-1.1,1.1-1.1,2v3.2l3.5,2.1v-3.1c0-0.9,0.4-1.6,1.1-2
	l4-2.4c0.7-0.4,1.5-0.4,2.2,0l4,2.3c0.6,0.4,1.1,1.1,1.1,2v4.6c0,0.9-0.5,1.6-1.1,2l-4,2.4c-0.6,0.4-1.5,0.4-2.2,0l-5.1-3.1l-3.5-2
	l-5.3-3.1c-0.6-0.4-1.5-0.4-2.2,0C13.4,16.6,6.1,21,6,21z"/>
</svg>
