<?xml version="1.0" encoding="UTF-8"?>
<svg id="Layer_1" data-name="Layer 1" xmlns="http://www.w3.org/2000/svg" version="1.1" viewBox="0 0 100 100">
  <defs>
    <style>
      .cls-1 {
        fill: #824ee2;
      }

      .cls-1, .cls-2 {
        stroke-width: 0px;
      }

      .cls-2 {
        fill: #fff;
      }
    </style>
  </defs>
  <rect class="cls-1" x="1.5" y="2" width="97" height="96.1" rx="10.5" ry="10.5"/>
  <path class="cls-2" d="M15.8,46.4c-1.4.8-2.3,2.3-2.3,4.1v18c0,1.9.8,3.3,2.3,4.1l15.4,8.9c1.4.8,3.1.8,4.5,0l15.4-9c1.4-.8,2.3-2.3,2.3-4.1v-6.3l-7.1-4.1v6c0,1.9-.8,3.3-2.3,4.1l-8.2,4.7c-1.4.8-3.1.8-4.5,0l-8-4.7c-1.4-.8-2.3-2.3-2.3-4.1v-9.4c0-1.9.8-3.3,2.3-4.1l8.2-4.7c1.2-.8,3.1-.8,4.5,0l10.4,5.9,7.1,4.3,10.4,5.9c1.4.8,3.1.8,4.5,0l15.6-9c1.4-.8,2.3-2.3,2.3-4.1v-17.8c0-1.4-.8-2.9-2.3-3.7l-15.6-9c-1.4-.8-3.1-.8-4.5,0l-15.4,9c-1.4.8-2.3,2.3-2.3,4.1v6.6l7.1,4.3v-6.5c0-1.9.8-3.3,2.3-4.1l8.2-4.9c1.4-.8,3.1-.8,4.5,0l8.2,4.7c1.2.8,2.3,2.3,2.3,4.1v9.5c0,1.9-1,3.3-2.3,4.1l-8.2,4.9c-1.2.8-3.1.8-4.5,0l-10.4-6.4-7.1-4.1-10.9-6.4c-1.2-.8-3.1-.8-4.5,0,0,0-14.8,9.1-15.1,9.1h0Z"/>
</svg>