<?xml version="1.0" encoding="utf-8"?>
<!-- Generator: Adobe Illustrator 27.2.0, SVG Export Plug-In . SVG Version: 6.00 Build 0)  -->
<svg version="1.1" id="Layer_1" xmlns="http://www.w3.org/2000/svg" xmlns:xlink="http://www.w3.org/1999/xlink" x="0px" y="0px"
	 viewBox="0 0 100 100" style="enable-background:new 0 0 100 100;" xml:space="preserve">
<style type="text/css">
	.st0{fill:#824EE2;}
	.st1{fill:#FFFFFF;}
</style>
<g>
	<path class="st0" d="M98.4,94.6c0,1.7-1.3,3-3,3h-91c-1.6,0-3-1.3-3-3V4.5c0-1.7,1.3-3,3-3h91c1.7,0,3,1.3,3,3V94.6z"/>
</g>
<path class="st1" d="M13.6,46.2c-1.5,0.9-2.4,2.4-2.4,4.4v19.2c0,2,0.9,3.5,2.4,4.4L30,83.7c1.5,0.9,3.3,0.9,4.8,0l16.4-9.6
	c1.5-0.9,2.4-2.4,2.4-4.4V63L46,58.6V65c0,2-0.9,3.5-2.4,4.4l-8.7,5c-1.5,0.9-3.3,0.9-4.8,0l-8.5-5c-1.5-0.9-2.4-2.4-2.4-4.4v-10
	c0-2,0.9-3.5,2.4-4.4l8.7-5c1.3-0.9,3.3-0.9,4.8,0l11.1,6.3l7.6,4.6l11.1,6.3c1.5,0.9,3.3,0.9,4.8,0l16.6-9.6
	c1.5-0.9,2.4-2.4,2.4-4.4v-19c0-1.5-0.9-3.1-2.4-3.9l-16.6-9.6c-1.5-0.9-3.3-0.9-4.8,0l-16.4,9.6c-1.5,0.9-2.4,2.4-2.4,4.4v7
	l7.6,4.6V35c0-2,0.9-3.5,2.4-4.4l8.7-5.2c1.5-0.9,3.3-0.9,4.8,0l8.7,5c1.3,0.9,2.4,2.4,2.4,4.4v10.1c0,2-1.1,3.5-2.4,4.4l-8.7,5.2
	c-1.3,0.9-3.3,0.9-4.8,0l-11.1-6.8l-7.6-4.4l-11.6-6.8c-1.3-0.9-3.3-0.9-4.8,0C29.8,36.6,13.9,46.2,13.6,46.2L13.6,46.2z"/>
</svg>
