<?xml version="1.0" encoding="utf-8"?>
<!-- Generator: Adobe Illustrator 27.2.0, SVG Export Plug-In . SVG Version: 6.00 Build 0)  -->
<svg version="1.1" id="Layer_1" xmlns="http://www.w3.org/2000/svg" xmlns:xlink="http://www.w3.org/1999/xlink" x="0px" y="0px"
	 viewBox="0 0 100 100" style="enable-background:new 0 0 100 100;" xml:space="preserve">
<style type="text/css">
	.st0{fill:url(#SVGID_1_);}
	.st1{fill:url(#SVGID_00000181779126242160716690000000533017657913826704_);}
	.st2{fill:url(#SVGID_00000005947625989308409020000007875036631660668324_);}
</style>
<g>
	<path d="M98.4,94.6c0,1.7-1.3,3-3,3h-91c-1.6,0-3-1.3-3-3V4.5c0-1.7,1.3-3,3-3h91c1.7,0,3,1.3,3,3V94.6z"/>
</g>
<linearGradient id="SVGID_1_" gradientUnits="userSpaceOnUse" x1="82.3695" y1="-719.6396" x2="38.5565" y2="-803.5596" gradientTransform="matrix(1 0 0 -1 0 -708.565)">
	<stop  offset="0" style="stop-color:#00FFA3"/>
	<stop  offset="1" style="stop-color:#DC1FFF"/>
</linearGradient>
<path class="st0" d="M23.1,66.1c0.5-0.5,1.3-0.8,1.8-0.8h63.5c1.3,0,1.8,1.5,1,2.3L76.9,80.2c-0.5,0.5-1.3,0.8-1.8,0.8H11.6
	c-1.3,0-1.8-1.5-1-2.5L23.1,66.1z"/>
<linearGradient id="SVGID_00000094581415908900878880000013290628057730972853_" gradientUnits="userSpaceOnUse" x1="63.167" y1="-710.077" x2="19.354" y2="-793.9969" gradientTransform="matrix(1 0 0 -1 0 -708.565)">
	<stop  offset="0" style="stop-color:#00FFA3"/>
	<stop  offset="1" style="stop-color:#DC1FFF"/>
</linearGradient>
<path style="fill:url(#SVGID_00000094581415908900878880000013290628057730972853_);" d="M23.1,19.7c0.5-0.5,1.3-0.8,1.8-0.8h63.5
	c1.3,0,1.8,1.5,1,2.3L76.9,33.8c-0.5,0.5-1.3,0.8-1.8,0.8H11.6c-1.3,0-1.8-1.5-1-2.3L23.1,19.7z"/>
<linearGradient id="SVGID_00000162336411372780879780000014600217261681154189_" gradientUnits="userSpaceOnUse" x1="72.6407" y1="-715.0232" x2="28.8279" y2="-798.9429" gradientTransform="matrix(1 0 0 -1 0 -708.565)">
	<stop  offset="0" style="stop-color:#00FFA3"/>
	<stop  offset="1" style="stop-color:#DC1FFF"/>
</linearGradient>
<path style="fill:url(#SVGID_00000162336411372780879780000014600217261681154189_);" d="M76.9,42.8c-0.5-0.5-1.3-0.8-1.8-0.8H11.6
	c-1.3,0-1.8,1.5-1,2.3l12.6,12.6c0.5,0.5,1.3,0.8,1.8,0.8h63.5c1.3,0,1.8-1.5,1-2.3L76.9,42.8z"/>
</svg>
