<?xml version="1.0" encoding="utf-8"?>
<!-- Generator: Adobe Illustrator 27.2.0, SVG Export Plug-In . SVG Version: 6.00 Build 0)  -->
<svg version="1.1" id="Layer_1" xmlns="http://www.w3.org/2000/svg" xmlns:xlink="http://www.w3.org/1999/xlink" x="0px" y="0px"
	 viewBox="0 0 100 100" style="enable-background:new 0 0 100 100;" xml:space="preserve">
<style type="text/css">
	.st0{fill:url(#SVGID_1_);}
	.st1{fill:url(#SVGID_00000084512389399845772290000014030262810958575789_);}
	.st2{fill:url(#SVGID_00000155144795167954734530000002275053141667187356_);}
</style>
<g>
	<path d="M98.6,90.6c0,3.8-3.2,7-7,7h-83c-3.8,0-7-3.2-7-7V8.5c0-3.8,3.2-7,7-7h83c3.8,0,7,3.2,7,7V90.6z"/>
</g>
<linearGradient id="SVGID_1_" gradientUnits="userSpaceOnUse" x1="82.3709" y1="1219.6404" x2="38.5579" y2="1303.5603" gradientTransform="matrix(1 0 0 1 0 -1208.5649)">
	<stop  offset="0" style="stop-color:#00FFA3"/>
	<stop  offset="1" style="stop-color:#DC1FFF"/>
</linearGradient>
<path class="st0" d="M23.1,66.1c0.5-0.5,1.3-0.8,1.8-0.8h63.5c1.3,0,1.8,1.5,1,2.3L76.9,80.2c-0.5,0.5-1.3,0.8-1.8,0.8H11.6
	c-1.3,0-1.8-1.5-1-2.5L23.1,66.1z"/>
<linearGradient id="SVGID_00000134958013394865338580000015960217729924319376_" gradientUnits="userSpaceOnUse" x1="63.1743" y1="1210.0808" x2="19.3613" y2="1294.0007" gradientTransform="matrix(1 0 0 1 0 -1208.5649)">
	<stop  offset="0" style="stop-color:#00FFA3"/>
	<stop  offset="1" style="stop-color:#DC1FFF"/>
</linearGradient>
<path style="fill:url(#SVGID_00000134958013394865338580000015960217729924319376_);" d="M23.1,19.7c0.5-0.5,1.3-0.8,1.8-0.8h63.5
	c1.3,0,1.8,1.5,1,2.3L76.9,33.8c-0.5,0.5-1.3,0.8-1.8,0.8H11.6c-1.3,0-1.8-1.5-1-2.3L23.1,19.7z"/>
<linearGradient id="SVGID_00000109023298388676865220000012478378354246867083_" gradientUnits="userSpaceOnUse" x1="72.6904" y1="1215.0492" x2="28.8776" y2="1298.9689" gradientTransform="matrix(1 0 0 1 0 -1208.5649)">
	<stop  offset="0" style="stop-color:#00FFA3"/>
	<stop  offset="1" style="stop-color:#DC1FFF"/>
</linearGradient>
<path style="fill:url(#SVGID_00000109023298388676865220000012478378354246867083_);" d="M76.9,42.8c-0.5-0.5-1.3-0.8-1.8-0.8H11.6
	c-1.3,0-1.8,1.5-1,2.3l12.6,12.6c0.5,0.5,1.3,0.8,1.8,0.8h63.5c1.3,0,1.8-1.5,1-2.3L76.9,42.8z"/>
</svg>
