<?xml version="1.0" encoding="UTF-8"?>
<svg xmlns="http://www.w3.org/2000/svg" version="1.1" viewBox="0 0 100 100">
  <defs>
    <style>
      .cls-1 {
        fill: #fff;
      }
    </style>
  </defs>
  <!-- Generator: Adobe Illustrator 28.7.1, SVG Export Plug-In . SVG Version: 1.2.0 Build 142)  -->
  <g>
    <g id="Layer_1">
      <rect x="1.5" y="2" width="97" height="96.1" rx="10.5" ry="10.5"/>
      <path class="cls-1" d="M75.9,39.1c-1.4-3.3-3.4-6.3-6-9-2.6-2.6-5.6-4.6-8.9-6.1-3.5-1.5-7.2-2.2-11-2.2s-7.5.7-11,2.2c-3.3,1.4-6.3,3.4-8.9,6.1-2.6,2.6-4.6,5.6-6,9-1.5,3.4-2.2,7.1-2.2,11s.7,7.5,2.2,11c1.4,3.3,3.4,6.3,6,9,2.6,2.6,5.6,4.6,8.9,6,3.5,1.5,7.2,2.2,11,2.2s7.5-.7,11-2.2c3.3-1.4,6.3-3.4,8.9-6.1,2.6-2.6,4.6-5.6,6-9,1.5-3.5,2.2-7.2,2.2-11s-.8-7.5-2.3-10.9ZM40.7,47.4c1.1-4.5,5.3-7.8,10.1-7.8h19.6c1.3,2.4,2.1,5.1,2.4,7.8h-32ZM72.7,52.7c-.3,2.8-1.1,5.4-2.4,7.8h-19.6c-4.9,0-8.9-3.3-10.1-7.8h32ZM33.8,33.8c4.3-4.3,10.1-6.7,16.2-6.7s11.8,2.4,16.2,6.7c.1.1.2.2.4.4h-15.8c-4.2,0-8.2,1.6-11.2,4.6-2.4,2.4-3.9,5.3-4.4,8.5h-8c.6-5.1,2.9-9.8,6.5-13.5ZM50,72.9c-6.1,0-11.8-2.4-16.2-6.7-3.7-3.7-5.9-8.5-6.5-13.5h8c.5,3.2,2.1,6.1,4.4,8.5,3,3,6.9,4.6,11.2,4.6h15.8c-.1.1-.2.2-.4.4-4.3,4.3-10.1,6.7-16.2,6.7Z"/>
    </g>
  </g>
</svg>